<svg xmlns="http://www.w3.org/2000/svg" width="48" height="48" viewBox="0 0 21 21">
    <defs>
        <linearGradient id="grad3" x1="0%" y1="0%" x2="100%" y2="0%">
            <stop offset="0%" style="stop-color:#ac8661;stop-opacity:1" />
            <stop offset="50%" style="stop-color:#eedd91;stop-opacity:1" />
            <stop offset="100%" style="stop-color:#ac8661;stop-opacity:1" />
        </linearGradient>
    </defs>
    <path fill="none" stroke="url(#grad3)" stroke-width="0.6" d="M10.5 2.5a3 3 0 0 1 3 3v2a3 3 0 1 1-6 0v-2a3 3 0 0 1 3-3m7 14v-.728c0-3.187-3.686-5.272-7-5.272s-7 2.085-7 5.272v.728a1 1 0 0 0 1 1h12a1 1 0 0 0 1-1"/>
</svg>
