<svg width="72" height="41" xmlns="http://www.w3.org/2000/svg">
    <!-- Puntos negros más pequeños con opacidad del 10% y con menor separación -->
    <circle cx="10" cy="10" r="0.5" fill="#0d9488" opacity="0.3" />
    <circle cx="20" cy="10" r="0.5" fill="#0d9488" opacity="0.3" />
    <circle cx="30" cy="10" r="0.5" fill="#0d9488" opacity="0.3" />
    <circle cx="40" cy="10" r="0.5" fill="#0d9488" opacity="0.3" />
    <circle cx="50" cy="10" r="0.5" fill="#0d9488" opacity="0.3" />
    <circle cx="60" cy="10" r="0.5" fill="#0d9488" opacity="0.3" />
    <circle cx="70" cy="10" r="0.5" fill="#0d9488" opacity="0.3" />

    <circle cx="20" cy="20" r="0.5" fill="#0d9488" opacity="0.3" />
    <circle cx="30" cy="20" r="0.5" fill="#0d9488" opacity="0.3" />
    <circle cx="40" cy="20" r="0.5" fill="#0d9488" opacity="0.3" />
    <circle cx="50" cy="20" r="0.5" fill="#0d9488" opacity="0.3" />
    <circle cx="60" cy="20" r="0.5" fill="#0d9488" opacity="0.3" />
    <circle cx="10" cy="20" r="0.5" fill="#0d9488" opacity="0.3" />
    <circle cx="70" cy="20" r="0.5" fill="#0d9488" opacity="0.3" />

    <circle cx="10" cy="30" r="0.5" fill="#0d9488" opacity="0.3" />
    <circle cx="20" cy="30" r="0.5" fill="#0d9488" opacity="0.3" />
    <circle cx="30" cy="30" r="0.5" fill="#0d9488" opacity="0.3" />
    <circle cx="40" cy="30" r="0.5" fill="#0d9488" opacity="0.3" />
    <circle cx="50" cy="30" r="0.5" fill="#0d9488" opacity="0.3" />
    <circle cx="60" cy="30" r="0.5" fill="#0d9488" opacity="0.3" />
    <circle cx="70" cy="30" r="0.5" fill="#0d9488" opacity="0.3" />

    <circle cx="10" cy="40" r="0.5" fill="#0d9488" opacity="0.3" />
    <circle cx="20" cy="40" r="0.5" fill="#0d9488" opacity="0.3" />
    <circle cx="30" cy="40" r="0.5" fill="#0d9488" opacity="0.3" />
    <circle cx="40" cy="40" r="0.5" fill="#0d9488" opacity="0.3" />
    <circle cx="50" cy="40" r="0.5" fill="#0d9488" opacity="0.3" />
    <circle cx="60" cy="40" r="0.5" fill="#0d9488" opacity="0.3" />
    <circle cx="70" cy="40" r="0.5" fill="#0d9488" opacity="0.3" />
</svg>
