<svg width="121" height="160" xmlns="http://www.w3.org/2000/svg">
    <!-- Puntos negros más pequeños con opacidad del 10% y sin separación -->
    <circle cx="20" cy="20" r="1" fill="#ac8661" opacity="0.1" />
    <circle cx="40" cy="20" r="1" fill="#ac8661" opacity="0.1" />
    <circle cx="60" cy="20" r="1" fill="#ac8661" opacity="0.1" />
    <circle cx="80" cy="20" r="1" fill="#ac8661" opacity="0.1" />
    <circle cx="100" cy="20" r="1" fill="#ac8661" opacity="0.1" />
    <circle cx="120" cy="20" r="1" fill="#ac8661" opacity="0.1" />
    <circle cx="140" cy="20" r="1" fill="#ac8661" opacity="0.1" />

    <circle cx="20" cy="60" r="1" fill="#ac8661" opacity="0.1" />
    <circle cx="40" cy="60" r="1" fill="#ac8661" opacity="0.1" />
    <circle cx="60" cy="60" r="1" fill="#ac8661" opacity="0.1" />
    <circle cx="80" cy="60" r="1" fill="#ac8661" opacity="0.1" />
    <circle cx="100" cy="60" r="1" fill="#ac8661" opacity="0.1" />
    <circle cx="120" cy="60" r="1" fill="#ac8661" opacity="0.1" />
    <circle cx="140" cy="60" r="1" fill="#ac8661" opacity="0.1" />

    <circle cx="20" cy="100" r="1" fill="#ac8661" opacity="0.1" />
    <circle cx="40" cy="100" r="1" fill="#ac8661" opacity="0.1" />
    <circle cx="60" cy="100" r="1" fill="#ac8661" opacity="0.1" />
    <circle cx="80" cy="100" r="1" fill="#ac8661" opacity="0.1" />
    <circle cx="100" cy="100" r="1" fill="#ac8661" opacity="0.1" />
    <circle cx="120" cy="100" r="1" fill="#ac8661" opacity="0.1" />
    <circle cx="140" cy="100" r="1" fill="#ac8661" opacity="0.1" />

    <circle cx="20" cy="140" r="1" fill="#ac8661" opacity="0.1" />
    <circle cx="40" cy="140" r="1" fill="#ac8661" opacity="0.1" />
    <circle cx="60" cy="140" r="1" fill="#ac8661" opacity="0.1" />
    <circle cx="80" cy="140" r="1" fill="#ac8661" opacity="0.1" />
    <circle cx="100" cy="140" r="1" fill="#ac8661" opacity="0.1" />
    <circle cx="120" cy="140" r="1" fill="#ac8661" opacity="0.1" />
    <circle cx="140" cy="140" r="1" fill="#ac8661" opacity="0.1" />
</svg>
