<svg width="71" height="80" xmlns="http://www.w3.org/2000/svg">
    <!-- Puntos negros más pequeños con opacidad del 10% y con menor separación -->
    <circle cx="10" cy="10" r="1" fill="#ac866170" opacity="0.1" />
    <circle cx="20" cy="10" r="1" fill="#ac866170" opacity="0.1" />
    <circle cx="30" cy="10" r="1" fill="#ac866170" opacity="0.1" />
    <circle cx="40" cy="10" r="1" fill="#ac866170" opacity="0.1" />
    <circle cx="50" cy="10" r="1" fill="#ac866170" opacity="0.1" />
    <circle cx="60" cy="10" r="1" fill="#ac866170" opacity="0.1" />
    <circle cx="70" cy="10" r="1" fill="#ac866170" opacity="0.1" />

    <circle cx="10" cy="30" r="1" fill="#ac866170" opacity="0.1" />
    <circle cx="20" cy="30" r="1" fill="#ac866170" opacity="0.1" />
    <circle cx="30" cy="30" r="1" fill="#ac866170" opacity="0.1" />
    <circle cx="40" cy="30" r="1" fill="#ac866170" opacity="0.1" />
    <circle cx="50" cy="30" r="1" fill="#ac866170" opacity="0.1" />
    <circle cx="60" cy="30" r="1" fill="#ac866170" opacity="0.1" />
    <circle cx="70" cy="30" r="1" fill="#ac866170" opacity="0.1" />

    <circle cx="10" cy="50" r="1" fill="#ac866170" opacity="0.1" />
    <circle cx="20" cy="50" r="1" fill="#ac866170" opacity="0.1" />
    <circle cx="30" cy="50" r="1" fill="#ac866170" opacity="0.1" />
    <circle cx="40" cy="50" r="1" fill="#ac866170" opacity="0.1" />
    <circle cx="50" cy="50" r="1" fill="#ac866170" opacity="0.1" />
    <circle cx="60" cy="50" r="1" fill="#ac866170" opacity="0.1" />
    <circle cx="70" cy="50" r="1" fill="#ac866170" opacity="0.1" />

    <circle cx="10" cy="70" r="1" fill="#ac866170" opacity="0.1" />
    <circle cx="20" cy="70" r="1" fill="#ac866170" opacity="0.1" />
    <circle cx="30" cy="70" r="1" fill="#ac866170" opacity="0.1" />
    <circle cx="40" cy="70" r="1" fill="#ac866170" opacity="0.1" />
    <circle cx="50" cy="70" r="1" fill="#ac866170" opacity="0.1" />
    <circle cx="60" cy="70" r="1" fill="#ac866170" opacity="0.1" />
    <circle cx="70" cy="70" r="1" fill="#ac866170" opacity="0.1" />
</svg>
