<svg xmlns="http://www.w3.org/2000/svg" width="46" height="48" viewBox="0 0 256 256">
  <defs>
    <linearGradient id="grad3" x1="0%" y1="0%" x2="100%" y2="0%">
      <stop offset="0%" style="stop-color:#ac8661;stop-opacity:1" />
      <stop offset="50%" style="stop-color:#eedd91;stop-opacity:1" />
      <stop offset="100%" style="stop-color:#ac8661;stop-opacity:1" />
    </linearGradient>
  </defs>
  
  <path fill="url(#grad3)" d="m216.49 111.51l-80-80a12 12 0 0 0-17 0l-80 80A12 12 0 0 0 36 120v96a4 4 0 0 0 4 4h176a4 4 0 0 0 4-4v-96a12 12 0 0 0-3.51-8.49M212 212H44v-92a4 4 0 0 1 1.17-2.83l80-80a4 4 0 0 1 5.66 0l80 80A4 4 0 0 1 212 120Z"/>
</svg>
