<svg xmlns="http://www.w3.org/2000/svg" width="48" height="48" viewBox="0 0 256 256">
    <defs>
        <linearGradient id="grad3" x1="0%" y1="0%" x2="100%" y2="0%">
            <stop offset="0%" style="stop-color:#ac8661;stop-opacity:1" />
            <stop offset="50%" style="stop-color:#eedd91;stop-opacity:1" />
            <stop offset="100%" style="stop-color:#ac8661;stop-opacity:1" />
        </linearGradient>
    </defs>
    <path fill="url(#grad3)" transform="rotate(-45 160 150)" d="M219.86 47.36a12 12 0 0 0-11.22-11.22c-12-.71-42.82.38-68.35 25.91L134.35 68h-60a11.9
     11.9 0 0 0-8.48 3.52l-34.35 34.33a12 12 0 0 0 6.81 20.37l39.79 5.55l46.11 46.11l5.55 39.81a12
      12 0 0 0 20.37 6.79l34.34-34.35a11.9 11.9 0 0 0 3.52-8.48v-60l5.94-5.94c25.53-25.53 26.62-56.3 25.91-68.35M36.21 115.6a3.94
       3.94 0 0 1 1-4.09l34.32-34.34A4 4 0 0 1 74.35 76h52l-47.77 47.76l-39.14-5.46a3.94 3.94 0 0 1-3.23-2.7M180 181.65a4
        4 0 0 1-1.17 2.83l-34.35 34.34a4 4 0 0 1-6.79-2.25l-5.46-39.15L180 129.65Zm-52-11.31L85.66 128l60.28-60.29c23.24-23.24
         51.25-24.23 62.22-23.58a3.93 3.93 0 0 1 3.71 3.71c.65 11-.35 39-23.58 62.22Zm-29.79
     19.14C94 198.66 80 220 40 "/>
</svg>
